<svg xmlns="http://www.w3.org/2000/svg" width="15" height="15" fill="none" overflow="visible"><g><path d="M 7.5 11.25 L 2.813 6.563 L 4.125 5.203 L 6.563 7.641 L 6.563 0 L 8.438 0 L 8.438 7.641 L 10.875 5.203 L 12.188 6.563 Z M 1.875 15 C 1.359 15 0.918 14.817 0.551 14.45 C 0.184 14.083 0.001 13.641 0 13.125 L 0 10.313 L 1.875 10.313 L 1.875 13.125 L 13.125 13.125 L 13.125 10.313 L 15 10.313 L 15 13.125 C 15 13.641 14.817 14.082 14.45 14.45 C 14.083 14.817 13.641 15.001 13.125 15 Z" fill="rgb(252, 252, 253)"></path></g></svg>